<svg width="264" height="73" xmlns="http://www.w3.org/2000/svg"><path d="M11.308 13L19 10.368 15.692 0 8 2.632 11.308 13zM58 72v-7.347H41.962V1H33v71h25zm-38.404 1V35.518c2.572-4.165 4.707-8.87 6.404-14.114V14H1.466v7.327h15.507c-1.8 4.833-4.114 9.062-6.943 12.687C7.2 37.639 3.858 40.942 0 43.924l4.86 7.635a41.145 41.145 0 003.125-2.467 57.86 57.86 0 002.893-2.7V73h8.718zM23.4 50l7.6-1.109L28.44 34 21 35.188 23.4 50zm56.624-31L87 13.734 77.976 1 71 6.266 80.024 19zM127 72v-7.324h-14.741V33.608h14.275v-7.324H112.26V2h-8.845v62.676H91V72h36zm-48.975-1L96 59.923l-3.9-6.846-6.12 3.77V23H69v7.308h8.26v31.846l-3.288 2.077L78.025 71zm62.555-48c3.32-2.47 6.394-5.364 9.222-8.683A56.498 56.498 0 00157 3.627L150.619 0a82.41 82.41 0 01-6.265 8.451A57.13 57.13 0 01137 15.668L140.58 23zM194 13V6h-31v7h31zm-40.18 60V35.663h-3.755a94.91 94.91 0 005.515-6.403c1.695-2.16 3.168-4.294 4.42-6.403L153.663 19a111.25 111.25 0 01-3.56 4.629 91.061 91.061 0 01-4.224 4.86 107.491 107.491 0 01-4.498 4.551c-1.513 1.44-2.973 2.674-4.381 3.703l3.286 7.56a83.897 83.897 0 004.537-3.549V73h8.997zm31.942 0V34.332H196V27h-34v7.332h15.052V64.51h-5.883L174.53 73h11.232zM264 65.708c-7.981-5.27-14.057-11.373-18.228-18.307-4.17-6.934-6.256-14.827-6.256-23.68V1h-8.805v22.644c0 8.904-1.943 16.849-5.83 23.834-3.888 6.985-9.848 12.985-17.881 18L212.098 73c11.327-7.369 19.103-16.35 23.325-26.942 2.214 5.373 5.265 10.285 9.152 14.737 3.888 4.452 8.766 8.52 14.636 12.205L264 65.708z" fill="#34343E" fill-rule="nonzero"/></svg>